<?xml version="1.0" standalone="no"?>
<!DOCTYPE svg PUBLIC "-//W3C//DTD SVG 1.1//EN" "http://www.w3.org/Graphics/SVG/1.1/DTD/svg11.dtd" >
<svg>
<metadata>
Created by FontForge 20090622 at Fri Jan  6 10:21:46 2017
 By deploy user
Copyright (c) 2012 by Typomancer. All rights reserved.
</metadata>
<defs>
<font id="Quark-Light" horiz-adv-x="0" >
  <font-face 
    font-family="Quark"
    font-weight="300"
    font-stretch="normal"
    units-per-em="1000"
    panose-1="2 0 0 0 0 0 0 0 0 0"
    ascent="750"
    descent="-250"
    x-height="500"
    cap-height="710"
    bbox="-442 -392 813 873"
    underline-thickness="35"
    underline-position="-74"
    unicode-range="U+0020-U+F882"
  />
<missing-glyph horiz-adv-x="524" 
d="M464 0h-404v518l17 82h387v-600zM110 555v-510h304v510h-304z" />
    <glyph glyph-name="copyright2" unicode="&#x3b;&#x3b;For&#x20;Education&#x20;Used&#x20;Only&#x3b;&#x3b;" horiz-adv-x="790" 
d="M396 38q132 0 224 92.5t92 225.5q0 132 -92 224t-224 92q-133 0 -225.5 -92t-92.5 -224q0 -134 92 -226t226 -92zM396 -7q-150 0 -256.5 106.5t-106.5 256.5q0 149 106.5 255t256.5 106q148 0 254.5 -106.5t106.5 -254.5q0 -150 -106 -256.5t-255 -106.5zM527 199l5 -41
q-67 -37 -139 -37q-88 0 -142.5 55t-54.5 161v29q0 114 54.5 170.5t143.5 56.5q62 0 125 -25l-5 -41q-66 24 -118 24q-71 0 -113 -45t-42 -140v-29q0 -86 42 -130t111 -44t133 36z" />
    <glyph glyph-name="registered2" unicode="&#x3b;&#x3b;Registered&#x3b;&#x3b;" horiz-adv-x="532" 
d="M222 585v-93h58q23 0 35.5 13.5t12.5 32.5t-12.5 33t-35.5 14h-58zM334 343l-34 90q-11 28 -43 28h-35v-118h-34v273h92q37 0 59.5 -23.5t22.5 -54.5q0 -49 -49 -66q14 -13 21 -33l36 -96h-36zM63 476q0 -83 59.5 -142.5t142.5 -59.5t142.5 59.5t59.5 142.5t-59.5 142.5
t-142.5 59.5t-142.5 -59.5t-59.5 -142.5zM25 476q0 100 70.5 170.5t170.5 70.5t170.5 -70.5t70.5 -170.5t-70.5 -170.5t-170.5 -70.5t-170.5 70.5t-70.5 170.5z" />
    <glyph glyph-name="multiply2" unicode="&#x3b;&#x3b;Multiply&#x3b;&#x3b;" horiz-adv-x="408" 
d="M206 281l111 140h52l-137 -173l137 -172h-52l-111 140l-111 -140h-52l137 172l-137 173h52z" />
    <glyph glyph-name="divide2" unicode="&#x3b;&#x3b;Divide&#x3b;&#x3b;" horiz-adv-x="408" 
d="M205 154q16 0 27.5 -12t11.5 -28t-11.5 -27.5t-27.5 -11.5q-17 0 -28.5 11t-11.5 28t11.5 28.5t28.5 11.5zM205 423q16 0 27.5 -12t11.5 -28t-11.5 -27.5t-27.5 -11.5q-17 0 -28.5 11t-11.5 28t11.5 28.5t28.5 11.5zM30 270h350v-42h-350v42z" />
    <glyph glyph-name="quotedblleft" unicode="&#x2018;&#x2018;" horiz-adv-x="289" 
d="M18 480l86 230h45l-61 -230h-70zM139 480l86 230h45l-61 -230h-70z" />
    <glyph glyph-name="quotedblright" unicode="&#x2019;&#x2019;" horiz-adv-x="289" 
d="M270 710l-86 -230h-45l61 230h70zM149 710l-86 -230h-45l61 230h70z" />
    <glyph glyph-name="trademark2" unicode="&#x3b;&#x3b;Trademark&#x3b;&#x3b;" horiz-adv-x="552" 
d="M404 473h-34l-73 193v-193h-34v237h51l73 -194l73 194h51v-237h-34v193zM230 681h-85v-208h-34v208h-85v29h204v-29z" />
    <glyph glyph-name="rulakkhangyao" unicode="&#xe24;&#xe32;" horiz-adv-x="710" 
d="M646 358v-558h-45v556q0 57 -27.5 83t-72.5 26q-58 0 -118 -31q20 -37 20 -94v-540h-45v540q0 125 -127 125q-67 0 -144 -33l16 -93v-234q0 -34 13.5 -48.5t44.5 -14.5h54v-42h-55q-51 0 -76.5 27.5t-25.5 74.5v237l-20 115q117 53 193 53q85 0 128 -42q65 42 141 42
q65 0 105.5 -37t40.5 -112z" />
    <glyph glyph-name="lulakkhangyao" unicode="&#xe26;&#xe32;" horiz-adv-x="760" 
d="M115 339v-284q0 -55 -58 -55h-41v42h38q16 0 16 16v281l-20 115q117 53 193 53q85 0 128 -42q65 42 141 42q65 0 105.5 -37t40.5 -112v-558h-45v556q0 57 -27.5 83t-72.5 26q-58 0 -118 -31q20 -37 20 -94v-540h-45v540q0 125 -127 125q-67 0 -144 -33z" />
    <glyph glyph-name=".notdef" horiz-adv-x="524" 
d="M464 0h-404v518l17 82h387v-600zM110 555v-510h304v510h-304z" />
    <glyph glyph-name=".null" 
 />
    <glyph glyph-name="nonmarkingreturn" horiz-adv-x="333" 
 />
    <glyph glyph-name="space" unicode=" " horiz-adv-x="310" 
 />
    <glyph glyph-name="exclam" unicode="!" horiz-adv-x="191" 
d="M123 710l-6 -552h-43l-6 552h55zM51 38q0 19 13 32t32 13t32 -13t13 -32t-13 -32t-32 -13t-32 13t-13 32z" />
    <glyph glyph-name="quotedbl" unicode="&#x22;" horiz-adv-x="288" 
d="M109 710l-8 -260h-48l-9 260h65zM240 710l-8 -260h-48l-9 260h65z" />
    <glyph glyph-name="numbersign" unicode="#" horiz-adv-x="734" 
d="M419 0l27 212h-209l-27 -212h-43l27 212h-154v42h160l26 204h-165v42h171l27 210h43l-27 -210h209l27 210h43l-27 -210h163v-42h-169l-26 -204h174v-42h-180l-27 -212h-43zM269 458l-26 -204h209l26 204h-209z" />
    <glyph glyph-name="dollar" unicode="$" horiz-adv-x="514" 
d="M458 167q0 -87 -49 -128t-128 -45v-94h-45v94q-100 6 -196 50l8 45q86 -46 188 -53v272q-41 15 -67 27.5t-55 33.5t-43 52t-14 71q0 144 179 153v88h45v-88q88 -4 171 -35l-8 -40q-72 29 -163 33v-263q42 -15 66.5 -26.5t53.5 -32t43 -48.5t14 -66zM413 167
q0 48 -33.5 74.5t-98.5 50.5v-257q132 9 132 132zM102 494q0 -53 34.5 -83t99.5 -54v246q-134 -7 -134 -109z" />
    <glyph glyph-name="percent" unicode="%" horiz-adv-x="716" 
d="M668 710l-563 -710h-53l563 710h53zM60 583q0 55 39 94.5t95 39.5t95 -39.5t39 -94.5t-39 -94.5t-95 -39.5t-95 39.5t-39 94.5zM106 583q0 -37 25.5 -62.5t62.5 -25.5t62.5 25.5t25.5 62.5t-25.5 62.5t-62.5 25.5t-62.5 -25.5t-25.5 -62.5zM394 127q0 55 39 94.5t95 39.5
t95 -39.5t39 -94.5t-39 -94.5t-95 -39.5t-95 39.5t-39 94.5zM440 127q0 -37 25.5 -62.5t62.5 -25.5t62.5 25.5t25.5 62.5t-25.5 62.5t-62.5 25.5t-62.5 -25.5t-25.5 -62.5z" />
    <glyph glyph-name="ampersand" unicode="&#x26;" horiz-adv-x="612" 
d="M453 358h-115v42h241v-42h-81q8 -43 8 -85q0 -116 -59 -190q49 -31 102 -48l-15 -42q-60 19 -119 58q-68 -58 -172 -58q-93 0 -148.5 54.5t-55.5 132.5q0 106 107 181q-48 104 -48 187q0 81 45.5 125t109.5 44q65 0 113 -45.5t48 -123.5v-12h-45q0 66 -34.5 102.5
t-81.5 36.5q-45 0 -77.5 -33t-32.5 -94q0 -104 75.5 -230t188.5 -209q54 65 54 164q0 39 -8 85zM375 79q-131 101 -210 245q-81 -61 -81 -145q0 -60 43.5 -102t115.5 -42q76 0 132 44z" />
    <glyph glyph-name="quotesingle" unicode="'" horiz-adv-x="154" 
d="M109 710l-8 -260h-48l-9 260h65z" />
    <glyph glyph-name="parenleft" unicode="(" horiz-adv-x="186" 
d="M164 -100h-45q-94 197 -94 405q0 211 94 405h45q-94 -194 -94 -405q0 -208 94 -405z" />
    <glyph glyph-name="parenright" unicode=")" horiz-adv-x="186" 
d="M67 -100h-45q94 197 94 405q0 211 -94 405h45q94 -194 94 -405q0 -208 -94 -405z" />
    <glyph glyph-name="asterisk" unicode="*" horiz-adv-x="390" 
d="M60 426l93 111l-129 42l24 61l121 -56l-8 130h65l-7 -130l121 56l24 -61l-130 -42l94 -111l-52 -40l-82 125l-82 -125z" />
    <glyph glyph-name="plus" unicode="+" horiz-adv-x="408" 
d="M378 228h-150v-152h-45v152h-150v42h150v151h45v-151h150v-42z" />
    <glyph glyph-name="comma" unicode="," horiz-adv-x="157" 
d="M146 100l-98 -200h-40l83 200h55z" />
    <glyph glyph-name="hyphen" unicode="-" horiz-adv-x="384" 
d="M30 270h325v-42h-325v42z" />
    <glyph glyph-name="period" unicode="." horiz-adv-x="116" 
d="M14 37q0 18 13 31t31 13t31 -13t13 -31t-13 -31t-31 -13t-31 13t-13 31z" />
    <glyph glyph-name="slash" unicode="/" horiz-adv-x="400" 
d="M353 710h41l-344 -810h-41z" />
    <glyph glyph-name="zero" unicode="0" horiz-adv-x="565" 
d="M284 -7q-122 0 -183.5 87.5t-61.5 240.5v68q0 153 61.5 240.5t183.5 87.5t183.5 -87.5t61.5 -240.5v-68q0 -153 -61.5 -240.5t-183.5 -87.5zM284 675q-96 0 -148 -75.5t-52 -205.5v-78q0 -130 52 -205.5t148 -75.5t148 75.5t52 205.5v78q0 130 -52 205.5t-148 75.5z" />
    <glyph glyph-name="one" unicode="1" horiz-adv-x="565" 
d="M148 0v42h130v612l-160 -144l-26 35l186 165h45v-668h130v-42h-305z" />
    <glyph glyph-name="two" unicode="2" horiz-adv-x="565" 
d="M114 42h390v-42h-439v58q357 289 357 479q0 70 -44 104t-113 34q-84 0 -183 -40l-6 41q89 41 189 41q87 0 144.5 -44.5t57.5 -137.5q0 -200 -353 -493z" />
    <glyph glyph-name="three" unicode="3" horiz-adv-x="565" 
d="M67 36l9 47q98 -48 196 -48q76 0 123.5 38t47.5 123q0 60 -39.5 104t-109.5 44h-126v42h125q64 0 99 42.5t35 99.5q0 147 -167 147q-67 0 -161 -25l-7 41q89 26 168 26q44 0 80 -9t67 -29.5t48 -58t17 -89.5q0 -51 -29.5 -99.5t-73.5 -64.5q59 -25 89 -72t30 -105
q0 -104 -60 -150.5t-156 -46.5q-98 0 -205 43z" />
    <glyph glyph-name="four" unicode="4" horiz-adv-x="565" 
d="M411 120v-120h-45v120h-321v42l316 548h50v-548h106v-42h-106zM94 162h272v472z" />
    <glyph glyph-name="five" unicode="5" horiz-adv-x="565" 
d="M141 668v-241l137 -10q106 -8 163 -69.5t57 -148.5q0 -85 -60 -145.5t-169 -60.5q-105 0 -202 43l11 42q93 -43 190 -43q89 0 137 48t48 115q0 75 -45.5 122t-129.5 54l-182 14v322h371v-42h-326z" />
    <glyph glyph-name="six" unicode="6" horiz-adv-x="565" 
d="M111 425v-52q88 45 177 45q97 0 150.5 -60.5t53.5 -144.5q0 -89 -58 -154.5t-161 -65.5q-86 0 -146.5 63t-60.5 187v178q0 148 63 222t172 74q69 0 156 -31l-10 -42q-81 31 -146 31q-89 0 -139.5 -61t-50.5 -189zM287 376q-88 0 -176 -47v-86q0 -103 47 -155.5t115 -52.5
q82 0 128 53t46 125q0 67 -41.5 115t-118.5 48z" />
    <glyph glyph-name="seven" unicode="7" horiz-adv-x="565" 
d="M198 0h-48l309 668h-391v42h439v-42z" />
    <glyph glyph-name="eight" unicode="8" horiz-adv-x="565" 
d="M84 538q0 87 59.5 133t141.5 46q80 0 139 -47.5t59 -131.5q0 -52 -34 -101t-87 -76q63 -32 98.5 -73.5t35.5 -105.5q0 -90 -64.5 -139.5t-152.5 -49.5q-98 0 -155.5 52.5t-57.5 129.5q0 58 34 115t101 100q-56 28 -86.5 62.5t-30.5 85.5zM112 175q0 -60 43.5 -100
t123.5 -40q70 0 121 38t51 108q0 19 -5.5 36.5t-12.5 31t-22.5 27l-26 22t-33 20.5t-33.5 17l-38 17.5l-36 16.5q-64 -35 -98 -88t-34 -106zM438 539q0 64 -45.5 100t-107.5 36q-64 0 -110 -35t-46 -101q0 -17 5 -32t17.5 -28.5t22.5 -22.5t33 -21l34 -18t40.5 -18.5
t39.5 -17.5q53 24 85 66.5t32 91.5z" />
    <glyph glyph-name="nine" unicode="9" horiz-adv-x="565" 
d="M254 35q193 0 193 250v46q-79 -52 -165 -52q-97 0 -156.5 59t-59.5 159q0 89 58 154.5t161 65.5q86 0 146.5 -63t60.5 -187v-178q0 -296 -238 -296q-58 0 -134 19l6 42q71 -19 128 -19zM282 321q85 0 165 54v92q0 103 -47 155.5t-115 52.5q-82 0 -128 -53t-46 -125
q0 -84 48 -130t123 -46z" />
    <glyph glyph-name="colon" unicode=":" horiz-adv-x="168" 
d="M84 463q20 0 34 -14.5t14 -34.5t-14 -34t-34 -14q-21 0 -35 14t-14 34t14 34.5t35 14.5zM84 90q20 0 34 -14.5t14 -34.5t-14 -34t-34 -14q-21 0 -35 14t-14 34t14 34.5t35 14.5z" />
    <glyph glyph-name="semicolon" unicode=";" horiz-adv-x="177" 
d="M104 463q20 0 34 -14.5t14 -34.5t-14 -34t-34 -14q-21 0 -35 14t-14 34t14 34.5t35 14.5zM138 100l-98 -200h-40l83 200h55z" />
    <glyph glyph-name="less" unicode="&#x3c;" horiz-adv-x="423" 
d="M76 293l314 -246v-54l-359 279v42l359 279v-54z" />
    <glyph glyph-name="equal" unicode="=" horiz-adv-x="408" 
d="M33 328h345v-42h-345v42zM33 212h345v-42h-345v42z" />
    <glyph glyph-name="greater" unicode="&#x3e;" horiz-adv-x="423" 
d="M31 47l314 246l-314 246v54l359 -279v-42l-359 -279v54z" />
    <glyph glyph-name="question" unicode="?" horiz-adv-x="433" 
d="M216 158h-45v16q0 56 17.5 102.5t42 78.5l49 61t42 64t17.5 74q0 121 -131 121q-62 0 -150 -28l-9 41q84 29 159 29q79 0 127.5 -38.5t48.5 -124.5q0 -44 -17.5 -82.5t-42 -67.5l-49 -59t-42 -72.5t-17.5 -93.5v-21zM150 38q0 19 13 32t32 13t32 -13t13 -32t-13 -32
t-32 -13t-32 13t-13 32z" />
    <glyph glyph-name="at" unicode="@" horiz-adv-x="761" 
d="M478 175v227q-56 18 -96 18q-62 0 -94.5 -44.5t-32.5 -123.5q0 -68 30 -107.5t74 -39.5q64 0 119 70zM734 283q0 -96 -42.5 -158t-108.5 -62q-33 0 -56.5 20.5t-32.5 55.5q-56 -76 -137 -76q-62 0 -104.5 51.5t-42.5 137.5q0 103 45.5 156.5t122.5 53.5q61 0 145 -36
v-236q0 -36 15 -60.5t45 -24.5q42 0 74 46.5t32 131.5q0 141 -74 221t-214 80t-235 -93.5t-95 -238.5q0 -149 85.5 -228t214.5 -79q98 0 189 49l9 -40q-93 -54 -199 -54q-93 0 -169.5 38t-125.5 119.5t-49 194.5q0 165 109 271t266 106q153 0 243 -92.5t90 -253.5z" />
    <glyph glyph-name="A" unicode="A" horiz-adv-x="600" 
d="M61 0h-42l258 710h46l258 -710h-42l-88 241h-303zM436 283l-136 375l-136 -375h272z" />
    <glyph glyph-name="B" unicode="B" horiz-adv-x="536" 
d="M265 710q98 0 152.5 -53.5t54.5 -133.5q0 -117 -107 -165q125 -51 125 -180q0 -32 -10.5 -62t-35 -59t-74 -46.5t-117.5 -17.5q-95 0 -189 20v697h201zM278 336h-169v-288q73 -13 144 -13q192 0 192 142q0 68 -45 113.5t-122 45.5zM109 668v-290h167q73 0 112 40.5
t39 99.5q0 65 -42.5 107.5t-119.5 42.5h-156z" />
    <glyph glyph-name="C" unicode="C" horiz-adv-x="530" 
d="M489 91l10 -40q-85 -58 -182 -58q-121 0 -196.5 72.5t-75.5 226.5v95q0 158 74.5 244t198.5 86q87 0 166 -42l-9 -39q-81 39 -158 39q-100 0 -163.5 -72t-63.5 -213v-100q0 -128 64 -191.5t163 -63.5q94 0 172 56z" />
    <glyph glyph-name="D" unicode="D" horiz-adv-x="590" 
d="M109 664v-622h143q120 0 182.5 81t62.5 220q0 158 -67.5 245t-204.5 87q-57 0 -116 -11zM252 0h-188v702q90 15 161 15q84 0 146.5 -29t99 -81.5t54 -118t17.5 -145.5q0 -98 -29.5 -173.5t-96.5 -122.5t-164 -47z" />
    <glyph glyph-name="E" unicode="E" horiz-adv-x="510" 
d="M469 0h-405v710h391v-42h-346v-291h303v-42h-303v-293h360v-42z" />
    <glyph glyph-name="F" unicode="F" horiz-adv-x="474" 
d="M109 0h-45v710h377v-42h-332v-314h289v-42h-289v-312z" />
    <glyph glyph-name="G" unicode="G" horiz-adv-x="588" 
d="M527 283v-248q-92 -42 -194 -42q-57 0 -106 16t-89.5 49.5t-64 93.5t-23.5 140v95q0 167 79 248.5t203 81.5q87 0 181 -43l-10 -40q-88 41 -170 41q-109 0 -173.5 -72t-64.5 -213v-100q0 -132 68 -193.5t170 -61.5q79 0 149 27v221q0 21 -9 29.5t-30 8.5h-112v42h112
q43 0 63.5 -19t20.5 -61z" />
    <glyph glyph-name="H" unicode="H" horiz-adv-x="593" 
d="M109 710v-350h375v350h45v-710h-45v318h-375v-318h-45v710h45z" />
    <glyph glyph-name="I" unicode="I" horiz-adv-x="185" 
d="M115 710v-710h-45v710h45z" />
    <glyph glyph-name="J" unicode="J" horiz-adv-x="281" 
d="M217 710v-565q0 -72 -35 -112t-91 -40q-37 0 -75 21l4 44q37 -23 70 -23q38 0 60 28.5t22 84.5v562h45z" />
    <glyph glyph-name="K" unicode="K" horiz-adv-x="553" 
d="M505 710l-210 -350q73 -15 109 -100l109 -260h-44l-107 247q-19 44 -41 59.5t-71 15.5h-141v-322h-45v710h45v-346h139l208 346h49z" />
    <glyph glyph-name="L" unicode="L" horiz-adv-x="472" 
d="M109 710v-668h333v-42h-378v710h45z" />
    <glyph glyph-name="M" unicode="M" horiz-adv-x="698" 
d="M372 0h-46l-217 625v-625h-45v710h64l221 -651l221 651h64v-710h-45v625z" />
    <glyph glyph-name="N" unicode="N" horiz-adv-x="580" 
d="M457 0l-348 634v-634h-45v710h54l353 -643v643h45v-710h-59z" />
    <glyph glyph-name="O" unicode="O" horiz-adv-x="636" 
d="M316 675q-110 0 -171.5 -81.5t-61.5 -206.5v-64q0 -125 61.5 -206.5t171.5 -81.5t171.5 81.5t61.5 206.5v64q0 125 -61.5 206.5t-171.5 81.5zM316 -7q-129 0 -203.5 90.5t-74.5 242.5v58q0 152 74.5 242.5t203.5 90.5t203.5 -90.5t74.5 -242.5v-58q0 -152 -74.5 -242.5
t-203.5 -90.5z" />
    <glyph glyph-name="P" unicode="P" horiz-adv-x="531" 
d="M109 661v-323h163q85 0 134.5 46t49.5 119q0 75 -56.5 123.5t-169.5 48.5q-58 0 -121 -14zM64 0v695q94 22 167 22q132 0 201 -62t69 -152q0 -87 -59.5 -147t-169.5 -60h-163v-296h-45z" />
    <glyph glyph-name="Q" unicode="Q" horiz-adv-x="636" 
d="M594 326q0 -142 -65.5 -231t-179.5 -100l12 -29q18 -41 42 -57.5t71 -16.5h96v-42h-99q-59 0 -93.5 24.5t-57.5 79.5l-17 39q-123 4 -194 94t-71 239v58q0 152 74.5 242.5t203.5 90.5t203.5 -90.5t74.5 -242.5v-58zM316 675q-110 0 -171.5 -81.5t-61.5 -206.5v-64
q0 -125 61.5 -206.5t171.5 -81.5t171.5 81.5t61.5 206.5v64q0 125 -61.5 206.5t-171.5 81.5z" />
    <glyph glyph-name="R" unicode="R" horiz-adv-x="544" 
d="M64 0v695q94 22 172 22q121 0 185.5 -60.5t64.5 -145.5q0 -62 -34.5 -112.5t-99.5 -71.5q27 -22 47 -67l109 -260h-44l-107 247q-18 41 -39 54.5t-63 13.5h-146v-315h-45zM109 661v-304h151q91 0 136 45.5t45 108.5q0 67 -52.5 115.5t-153.5 48.5q-63 0 -126 -14z" />
    <glyph glyph-name="S" unicode="S" horiz-adv-x="524" 
d="M478 167q0 -90 -59 -132t-151 -42q-112 0 -228 51l8 45q37 -20 99.5 -37t120.5 -17q72 0 118.5 31t46.5 101q0 45 -28 79.5t-69.5 55l-90.5 44t-90.5 45.5t-69.5 60t-28 88q0 94 63.5 136t160.5 42q100 0 191 -36l-8 -40q-86 34 -182 34q-79 0 -129.5 -31t-50.5 -103
q0 -40 28 -72t69.5 -51.5l90.5 -43.5t90.5 -47.5t69.5 -65t28 -94.5z" />
    <glyph glyph-name="T" unicode="T" horiz-adv-x="583" 
d="M269 668h-240v42h525v-42h-240v-668h-45v668z" />
    <glyph glyph-name="U" unicode="U" horiz-adv-x="633" 
d="M569 710v-469q0 -122 -74.5 -185t-178.5 -63t-178 63t-74 185v469h45v-469q0 -103 60.5 -154.5t146.5 -51.5q87 0 147.5 51.5t60.5 154.5v469h45z" />
    <glyph glyph-name="V" unicode="V" horiz-adv-x="600" 
d="M323 0h-46l-266 710h49l240 -653l240 653h49z" />
    <glyph glyph-name="W" unicode="W" horiz-adv-x="828" 
d="M278 0h-46l-217 710h45l195 -646l195 646h45l-59 -192l137 -454l195 646h45l-217 -710h-46l-136 445z" />
    <glyph glyph-name="X" unicode="X" horiz-adv-x="586" 
d="M267 366l-234 344h52l208 -306l208 306h52l-234 -344l249 -366h-52l-223 328l-223 -328h-52z" />
    <glyph glyph-name="Y" unicode="Y" horiz-adv-x="561" 
d="M280 331l220 379h49l-246 -424v-286h-45v286l-246 424h49z" />
    <glyph glyph-name="Z" unicode="Z" horiz-adv-x="538" 
d="M508 0h-478v42l398 626h-370v42h421v-42l-399 -626h428v-42z" />
    <glyph glyph-name="bracketleft" unicode="[" horiz-adv-x="235" 
d="M65 710h124v-42h-79v-726h79v-42h-124v810z" />
    <glyph glyph-name="backslash" unicode="\" horiz-adv-x="393" 
d="M8 710h41l344 -810h-41z" />
    <glyph glyph-name="bracketright" unicode="]" horiz-adv-x="235" 
d="M46 710h124v-810h-124v42h79v726h-79v42z" />
    <glyph glyph-name="asciicircum" unicode="^" horiz-adv-x="506" 
d="M253 665l-184 -235h-54l217 280h42l217 -280h-54z" />
    <glyph glyph-name="underscore" unicode="_" horiz-adv-x="436" 
d="M23 0h390v-42h-390v42z" />
    <glyph glyph-name="grave" unicode="`" horiz-adv-x="156" 
d="M101 580l-93 130h60l79 -130h-46z" />
    <glyph glyph-name="a" unicode="a" horiz-adv-x="443" 
d="M344 0l-5 64q-31 -31 -77 -51t-92 -20q-66 0 -101 40t-35 97q0 62 42 104.5t125 48.5l138 9v58q0 61 -37 88t-93 27q-59 0 -140 -31l-5 43q72 30 147 30t124 -38t49 -116v-353h-40zM339 251l-137 -10q-62 -4 -92.5 -34.5t-30.5 -75.5q0 -41 22.5 -68.5t68.5 -27.5
q45 0 91 20.5t78 51.5v144z" />
    <glyph glyph-name="b" unicode="b" horiz-adv-x="477" 
d="M104 733v-306q64 80 152 80q74 0 125.5 -59t51.5 -162v-71q0 -115 -53 -168.5t-142 -53.5q-76 0 -179 44v696h45zM104 374v-309q74 -30 134 -30q150 0 150 180v70q0 88 -38 134t-96 46q-87 0 -150 -91z" />
    <glyph glyph-name="c" unicode="c" horiz-adv-x="425" 
d="M385 73l5 -43q-70 -37 -135 -37q-97 0 -157 62.5t-60 172.5v29q0 116 59.5 183t158.5 67q59 0 124 -25l-5 -43q-66 26 -116 26q-81 0 -128.5 -52.5t-47.5 -155.5v-29q0 -92 48 -142.5t124 -50.5q58 0 130 38z" />
    <glyph glyph-name="d" unicode="d" horiz-adv-x="476" 
d="M372 427v306h45v-733h-40l-5 86q-64 -93 -151 -93q-79 0 -128.5 58.5t-49.5 163.5v71q0 104 51.5 162.5t128.5 58.5q85 0 149 -80zM372 138v236q-63 91 -147 91q-60 0 -98.5 -46t-38.5 -134v-70q0 -87 37 -133.5t97 -46.5q87 0 150 103z" />
    <glyph glyph-name="e" unicode="e" horiz-adv-x="454" 
d="M410 219h-325q4 -89 47 -136.5t124 -47.5q49 0 123 33l6 -43q-65 -32 -129 -32q-106 0 -161 65t-55 178q0 129 59.5 200t145.5 71q72 0 123.5 -55t51.5 -153q0 -40 -10 -80zM244 465q-63 0 -108 -53.5t-51 -150.5h287q3 19 3 38q0 78 -38.5 122t-92.5 44z" />
    <glyph glyph-name="f" unicode="f" horiz-adv-x="275" 
d="M76 458h-60v42h60v107q0 61 33.5 97t88.5 36q31 0 61 -11l-6 -41q-29 10 -54 10q-78 0 -78 -92v-106h136v-42h-136v-458h-45v458z" />
    <glyph glyph-name="g" unicode="g" horiz-adv-x="440" 
d="M42 337q0 74 46 122t122 48q74 0 122 -48q6 9 12 29l10 42h45l-11 -47q-9 -39 -33 -55q24 -42 24 -91q0 -74 -46 -120.5t-123 -46.5q-28 0 -52 6q-46 -21 -46 -64v-10q0 -46 58 -46h98q66 0 105 -33.5t39 -86.5v-15q0 -63 -53.5 -95.5t-137.5 -32.5t-135.5 35t-51.5 102
v25h45v-25q0 -47 37.5 -71t104.5 -24q66 0 106 22.5t40 65.5v10q0 81 -99 81h-98q-48 0 -75.5 24t-27.5 65v7q0 57 52 82q-77 44 -77 145zM87 337q0 -55 33 -90t90 -35t90.5 35t33.5 90q0 56 -33.5 92t-90.5 36t-90 -36t-33 -92z" />
    <glyph glyph-name="h" unicode="h" horiz-adv-x="469" 
d="M104 350v-350h-45v733h45v-332q85 106 181 106q55 0 90 -32t35 -97v-378h-45v378q0 87 -80 87q-46 0 -95 -34.5t-86 -80.5z" />
    <glyph glyph-name="i" unicode="i" horiz-adv-x="198" 
d="M46 642q0 19 13 32t32 13t32 -13t13 -32t-13 -32t-32 -13t-32 13t-13 32zM89 0v430q0 28 -27 28h-32v42h34q38 0 54 -16t16 -53v-431h-45z" />
    <glyph glyph-name="j" unicode="j" horiz-adv-x="202" 
d="M98 -66v496q0 28 -27 28h-36v42h38q38 0 54 -16t16 -53v-500q0 -65 -31 -101.5t-81 -36.5q-32 0 -67 15l6 43q34 -16 58 -16q70 0 70 99zM55 642q0 19 13 32t32 13t32 -13t13 -32t-13 -32t-32 -13t-32 13t-13 32z" />
    <glyph glyph-name="k" unicode="k" horiz-adv-x="416" 
d="M337 181l55 -181h-44l-52 171q-11 34 -31 48.5t-57 14.5h-104v-234h-45v733h45v-457h106l116 224h48l-119 -230q60 -17 82 -89z" />
    <glyph glyph-name="l" unicode="l" horiz-adv-x="203" 
d="M104 733v-643q0 -55 41 -55q15 0 38 10l5 -41q-24 -11 -46 -11q-83 0 -83 96v644h45z" />
    <glyph glyph-name="m" unicode="m" horiz-adv-x="731" 
d="M104 357v-357h-45v500h40l5 -92q26 39 68 69t91 30q46 0 79.5 -23.5t42.5 -70.5q27 37 72 65.5t90 28.5q54 0 89.5 -32t35.5 -97v-378h-45v378q0 87 -80 87q-41 0 -84.5 -30t-74.5 -71v-364h-45v378q0 87 -80 87q-44 0 -86 -31.5t-73 -76.5z" />
    <glyph glyph-name="n" unicode="n" horiz-adv-x="469" 
d="M104 350v-350h-45v500h40l5 -99q85 106 181 106q55 0 90 -32t35 -97v-378h-45v378q0 87 -80 87q-46 0 -95 -34.5t-86 -80.5z" />
    <glyph glyph-name="o" unicode="o" horiz-adv-x="500" 
d="M250 -7q-58 0 -100 19t-65.5 53.5t-34.5 75.5t-11 90v38q0 49 11 90t34.5 75.5t65.5 53.5t100 19t100 -19t65.5 -53.5t34.5 -75.5t11 -90v-38q0 -49 -11 -90t-34.5 -75.5t-65.5 -53.5t-100 -19zM250 35q86 0 126 54t40 146v30q0 92 -40 146t-126 54t-126 -54t-40 -146
v-30q0 -92 40 -146t126 -54z" />
    <glyph glyph-name="p" unicode="p" horiz-adv-x="477" 
d="M99 500l5 -73q64 80 152 80q74 0 125.5 -59t51.5 -162v-71q0 -103 -51.5 -162.5t-123.5 -59.5q-90 0 -154 93v-286h-45v700h40zM104 374v-236q31 -50 71.5 -76.5t81.5 -26.5q56 0 93.5 47t37.5 133v70q0 88 -38 134t-96 46q-87 0 -150 -91z" />
    <glyph glyph-name="q" unicode="q" horiz-adv-x="477" 
d="M373 427l5 73h40v-700h-45v286q-64 -93 -154 -93q-72 0 -123.5 59.5t-51.5 162.5v71q0 103 51.5 162t125.5 59q88 0 152 -80zM373 138v236q-63 91 -150 91q-58 0 -96 -46t-38 -134v-70q0 -86 37.5 -133t93.5 -47q41 0 81.5 26.5t71.5 76.5z" />
    <glyph glyph-name="r" unicode="r" horiz-adv-x="306" 
d="M287 500l-5 -42q-21 7 -40 7q-84 0 -138 -98v-367h-45v500h40l5 -80q20 37 56 62t79 25q24 0 48 -7z" />
    <glyph glyph-name="s" unicode="s" horiz-adv-x="398" 
d="M352 482l-6 -39q-77 22 -144 22q-54 0 -89 -19.5t-35 -61.5q0 -39 29.5 -63t72 -37l84.5 -27t71.5 -43.5t29.5 -76.5q0 -144 -178 -144q-77 0 -164 23l6 47q93 -28 159 -28q132 0 132 102q0 34 -29.5 55.5t-72 34.5t-84.5 28.5t-71.5 47.5t-29.5 81q0 64 46 93.5
t117 29.5q77 0 156 -25z" />
    <glyph glyph-name="t" unicode="t" horiz-adv-x="276" 
d="M81 99v359h-67v42h67v141l45 9v-150h115v-42h-115v-358q0 -65 52 -65q27 0 56 17l3 -41q-29 -18 -62 -18q-40 0 -67 27.5t-27 78.5z" />
    <glyph glyph-name="u" unicode="u" horiz-adv-x="469" 
d="M365 141v359h45v-500h-40l-5 90q-34 -42 -81.5 -69.5t-99.5 -27.5q-55 0 -90 33t-35 99v375h45v-375q0 -90 80 -90q47 0 96.5 31t84.5 75z" />
    <glyph glyph-name="v" unicode="v" horiz-adv-x="462" 
d="M254 0h-46l-196 500h49l170 -445l170 445h49z" />
    <glyph glyph-name="w" unicode="w" horiz-adv-x="583" 
d="M375 28l-84 297l-83 -297q-5 -16 -12.5 -22t-25.5 -6h-16l-141 500h46l118 -440l118 440h46l-27 -96l92 -344l118 440h46l-141 -500h-16q-18 0 -25.5 6t-12.5 22z" />
    <glyph glyph-name="x" unicode="x" horiz-adv-x="446" 
d="M223 218l-153 -218h-52l179 255l-171 245h52l145 -208l146 208h52l-172 -245l180 -255h-52z" />
    <glyph glyph-name="y" unicode="y" horiz-adv-x="478" 
d="M240 57l169 443h49l-244 -622q-33 -85 -111 -85q-41 0 -89 28l5 43q43 -29 84 -29q52 0 73 56l42 109l-198 500h49z" />
    <glyph glyph-name="z" unicode="z" horiz-adv-x="434" 
d="M400 0h-370v42l305 416h-294v42h345v-42l-306 -416h320v-42z" />
    <glyph glyph-name="braceleft" unicode="{" horiz-adv-x="212" 
d="M42 284v42q56 35 56 107q0 30 -19 92.5t-19 91.5q0 43 18 71.5t52 28.5q18 0 38 -7v-40q-18 5 -29 5q-34 0 -34 -58q0 -29 19 -91.5t19 -92.5q0 -93 -67 -128q67 -35 67 -128q0 -30 -19 -92.5t-19 -91.5q0 -58 34 -58q11 0 29 5v-40q-20 -7 -38 -7q-34 0 -52 28.5
t-18 71.5q0 29 19 91.5t19 92.5q0 72 -56 107z" />
    <glyph glyph-name="bar" unicode="|" horiz-adv-x="175" 
d="M110 760v-860h-45v860h45z" />
    <glyph glyph-name="braceright" unicode="}" horiz-adv-x="212" 
d="M168 326v-42q-56 -35 -56 -107q0 -30 19 -92.5t19 -91.5q0 -43 -18 -71.5t-52 -28.5q-18 0 -38 7v40q18 -5 29 -5q34 0 34 58q0 29 -19 91.5t-19 92.5q0 93 67 128q-67 35 -67 128q0 30 19 92.5t19 91.5q0 58 -34 58q-11 0 -29 -5v40q20 7 38 7q34 0 52 -28.5t18 -71.5
q0 -29 -19 -91.5t-19 -92.5q0 -72 56 -107z" />
    <glyph glyph-name="asciitilde" unicode="~" horiz-adv-x="397" 
d="M116 369q-28 0 -37.5 -21.5t-9.5 -64.5v-6h-43v7q0 55 20 92.5t66 37.5q32 0 64.5 -25t60 -49.5t47.5 -24.5q48 0 48 84v8h42v-9q0 -54 -20.5 -91t-68.5 -37q-23 0 -48 15.5t-42.5 34t-39 34t-39.5 15.5z" />
    <glyph glyph-name="kokaithai" unicode="&#xe01;" horiz-adv-x="461" 
d="M403 340v-340h-45v340q0 125 -127 125q-67 0 -144 -33l16 -93v-339h-45v339l-20 115q117 53 193 53q172 0 172 -167z" />
    <glyph glyph-name="khokhaithai" unicode="&#xe02;" horiz-adv-x="422" 
d="M94 218v-85q0 -48 32.5 -73t79.5 -25t80 25.5t33 72.5v367h45v-367q0 -67 -46.5 -103.5t-111.5 -36.5q-66 0 -111.5 36.5t-45.5 103.5v93q0 37 29 66l46 48q18 18 18 46v32q0 40 -41 40h-47v42h51q37 0 59.5 -20.5t22.5 -57.5v-40q0 -37 -26 -63l-49 -51q-18 -18 -18 -50
z" />
    <glyph glyph-name="khokhuatthai" unicode="&#xe03;" horiz-adv-x="422" 
d="M49 133v43q0 29 6.5 45.5t23.5 36.5l57 70q17 21 17 46v25q-25 -17 -53 -17t-46 19.5t-18 54.5v44h45v-38q0 -38 31 -38q20 0 41 10l7 66h38v-128q0 -34 -28 -68l-58 -72q-18 -22 -18 -59v-40q0 -48 32.5 -73t79.5 -25t80 25.5t33 72.5v367h45v-367q0 -67 -46.5 -103.5
t-111.5 -36.5q-66 0 -111.5 36.5t-45.5 103.5z" />
    <glyph glyph-name="khokhwaithai" unicode="&#xe04;" horiz-adv-x="455" 
d="M43 0l40 184q-50 52 -50 124v33q0 80 53.5 123t128.5 43t128.5 -43t53.5 -123v-341h-45v341q0 60 -40.5 92t-96.5 32q-57 0 -97 -31.5t-40 -92.5v-30q0 -55 24 -85q25 32 80 32h62v-42h-55q-31 0 -44 -10.5t-20 -41.5l-36 -164h-46z" />
    <glyph glyph-name="khokhonthai" unicode="&#xe05;" horiz-adv-x="461" 
d="M43 0l41 185q-51 64 -51 134v55q0 133 97 133q54 0 79 -51l22 -45l20 40q27 56 81 56q29 0 50 -15.5t21 -42.5v-449h-45v441q0 24 -27 24q-26 0 -45 -39l-28 -57h-53l-31 64q-15 32 -42 32q-54 0 -54 -90v-56q0 -53 27 -93q25 27 76 27h63v-42h-56q-31 0 -44 -10.5
t-20 -41.5l-35 -159h-46z" />
    <glyph glyph-name="khorakhangthai" unicode="&#xe06;" horiz-adv-x="473" 
d="M69 0v153q0 54 30 105l41 70q17 28 17 63v8q-25 -17 -53 -17t-46 19.5t-18 54.5v44h45v-38q0 -38 31 -38q20 0 41 10l7 66h38v-107q0 -48 -24 -89l-42 -72q-22 -39 -22 -78v-11q71 -108 173 -108q42 0 62.5 25t20.5 85v355h45v-357q0 -76 -34.5 -113t-93.5 -37
q-49 0 -94.5 25.5t-78.5 72.5l-7 -91h-38z" />
    <glyph glyph-name="ngonguthai" unicode="&#xe07;" horiz-adv-x="407" 
d="M253 458h-47v42h50q53 0 81.5 -27t28.5 -73q0 -18 -5 -43l-77 -357q-44 -7 -66 -7q-42 0 -69 18.5t-45 62.5l-95 226h52l90 -218q11 -27 25.5 -37t44.5 -10h26l69 326q5 23 5 38q0 59 -68 59z" />
    <glyph glyph-name="chochanthai" unicode="&#xe08;" horiz-adv-x="421" 
d="M51 433l-7 43q84 31 161 31q90 0 132.5 -44.5t42.5 -120.5q0 -48 -18 -110l-46 -165q-21 -74 -104 -74q-30 0 -69 13l-21 162q-3 25 -13.5 35t-36.5 10h-16v42h18q82 0 91 -80l16 -140h32q30 0 42 8t20 36l45 160q15 54 15 105q0 121 -130 121q-64 0 -154 -32z" />
    <glyph glyph-name="chochingthai" unicode="&#xe09;" horiz-adv-x="445" 
d="M342 340q-1 65 -40 95t-100 30q-74 0 -148 -36l-7 43q76 35 155 35q81 0 133 -40.5t52 -122.5v-344h-38l-7 100q-95 -107 -175 -107q-49 0 -83.5 32t-34.5 97v128h45v-128q0 -45 21 -66t54 -21q43 0 83 26.5t90 80.5v198z" />
    <glyph glyph-name="chochangthai" unicode="&#xe0a;" horiz-adv-x="422" 
d="M364 270v-137q0 -67 -46.5 -103.5t-111.5 -36.5q-66 0 -111.5 36.5t-45.5 103.5v93q0 37 29 66l46 48q18 18 18 46v32q0 40 -41 40h-47v42h51q37 0 59.5 -20.5t22.5 -57.5v-40q0 -37 -26 -63l-49 -51q-18 -18 -18 -50v-85q0 -48 32.5 -73t79.5 -25t80 25.5t33 72.5v133
q0 33 -13.5 48.5t-44.5 15.5h-31v42h23q22 0 32.5 9.5t16.5 33.5l22 92h45l-23 -97q-9 -41 -42 -57q34 -9 47 -28t13 -55z" />
    <glyph glyph-name="sosothai" unicode="&#xe0b;" horiz-adv-x="422" 
d="M364 270v-137q0 -67 -46.5 -103.5t-111.5 -36.5q-66 0 -111.5 36.5t-45.5 103.5v43q0 29 6.5 45.5t23.5 36.5l57 70q17 21 17 46v25q-25 -17 -53 -17t-46 19.5t-18 54.5v44h45v-38q0 -38 31 -38q20 0 41 10l7 66h38v-128q0 -34 -28 -68l-58 -72q-18 -22 -18 -59v-40
q0 -48 32.5 -73t79.5 -25t80 25.5t33 72.5v133q0 33 -13.5 48.5t-44.5 15.5h-31v42h23q22 0 32.5 9.5t16.5 33.5l22 92h45l-23 -97q-9 -41 -42 -57q34 -9 47 -28t13 -55z" />
    <glyph glyph-name="chochoethai" unicode="&#xe0c;" horiz-adv-x="719" 
d="M382 348v-214q91 -99 159 -99q75 0 75 90v375h45v-377q0 -65 -33.5 -97.5t-83.5 -32.5q-79 0 -162 96l-7 -89h-38v348q0 62 -31.5 89.5t-82.5 27.5q-56 0 -136 -33l16 -93v-234q0 -34 13.5 -48.5t44.5 -14.5h54v-42h-55q-51 0 -76.5 27.5t-25.5 74.5v237l-20 115
q119 53 187 53q70 0 113.5 -38t43.5 -121z" />
    <glyph glyph-name="yoyingthai" unicode="&#xe0d;" horiz-adv-x="719" 
d="M616 10v47q-80 -64 -157 -64q-57 0 -89.5 32t-32.5 98v225q0 62 -31.5 89.5t-82.5 27.5q-56 0 -136 -33l16 -93v-234q0 -34 13.5 -48.5t44.5 -14.5h54v-42h-55q-51 0 -76.5 27.5t-25.5 74.5v237l-20 115q119 53 187 53q70 0 113.5 -38t43.5 -121v-223q0 -90 77 -90
q75 0 157 61v404h45v-494q0 -146 -175 -146h-154v42h152q68 0 100 26t32 82z" />
    <glyph glyph-name="dochadathai" unicode="&#xe0e;" horiz-adv-x="473" 
d="M415 -200h-43q-103 79 -207 79q-48 0 -76 -20t-28 -59h-45q0 58 41.5 89.5t108.5 31.5q101 0 204 -71v490q0 125 -127 125q-67 0 -144 -33l16 -93v-284q0 -55 -58 -55h-41v42h38q16 0 16 16v281l-20 115q117 53 193 53q172 0 172 -167v-540z" />
    <glyph glyph-name="topatakthai" unicode="&#xe0f;" horiz-adv-x="473" 
d="M189 -88h45v-36q0 -15 10 -24.5t25 -9.5q45 0 101 70v428q0 125 -127 125q-67 0 -144 -33l16 -93v-284q0 -55 -58 -55h-41v42h38q16 0 16 16v281l-20 115q117 53 193 53q172 0 172 -167v-540h-38l-7 69q-29 -38 -51.5 -53.5t-52.5 -15.5q-27 0 -48 13.5t-27 39.5
q-41 -53 -121 -53h-54v42h53q82 0 120 70z" />
    <glyph glyph-name="thothanthai" unicode="&#xe10;" horiz-adv-x="408" 
d="M354 481l-8 -38q-64 22 -132 22q-136 0 -136 -105v-19q272 0 272 -170v-144q-52 -34 -118 -34q-52 0 -89.5 25t-46.5 75l-12 71q-2 14 -8.5 19t-20.5 5h-18v41h18q62 0 72 -55l11 -66q12 -73 94 -73q39 0 73 16v116q0 43 -22 71t-63.5 40.5t-81 17t-93.5 4.5q-9 36 -9 63
q0 76 50.5 110t127.5 34q69 0 140 -26zM329 -150v100h45v-150h-43q-80 79 -166 79q-48 0 -73 -20.5t-25 -58.5h-45q0 60 39.5 90.5t103.5 30.5q91 0 164 -71z" />
    <glyph glyph-name="thonangmonthothai" unicode="&#xe11;" horiz-adv-x="460" 
d="M58 0v146q0 67 19 121l21 61q20 56 20 71q-25 -17 -48 -17q-55 0 -55 69v49h45v-43q0 -33 25 -33q13 0 33 10l7 66h38v-73q61 80 140 80q44 0 71.5 -28.5t27.5 -87.5v-391h-45v391q0 74 -57 74q-50 0 -94 -45t-67 -110l-22 -63q-14 -39 -14 -100v-147h-45z" />
    <glyph glyph-name="thophuthaothai" unicode="&#xe12;" horiz-adv-x="719" 
d="M252 44v-41q-32 -10 -54 -10q-64 0 -105.5 37.5t-41.5 114.5v237q0 60 23 92.5t64 32.5q43 0 63 -42l26 -54l26 52q22 44 68 44q27 0 44 -17t17 -48v-308q91 -99 159 -99q75 0 75 90v375h45v-377q0 -65 -33.5 -97.5t-83.5 -32.5q-79 0 -162 96l-7 -89h-38v438
q0 27 -20 27q-16 0 -28 -25l-35 -71h-53l-37 77q-9 19 -26 19q-42 0 -42 -83v-237q0 -54 29 -82t74 -28q26 0 53 9z" />
    <glyph glyph-name="nonenthai" unicode="&#xe13;" horiz-adv-x="719" 
d="M661 500v-500h-38l-7 89q-77 -96 -158 -96q-53 0 -87 33.5t-34 98.5v223q0 62 -31.5 89.5t-82.5 27.5q-56 0 -136 -33l16 -93v-234q0 -34 13.5 -48.5t44.5 -14.5h54v-42h-55q-51 0 -76.5 27.5t-25.5 74.5v237l-20 115q119 53 187 53q70 0 113.5 -38t43.5 -121v-221
q0 -44 21.5 -68t57.5 -24q75 0 155 99v366h45z" />
    <glyph glyph-name="dodekthai" unicode="&#xe14;" horiz-adv-x="480" 
d="M50 145v193q0 81 54.5 125t131.5 44t131.5 -44t54.5 -125v-338h-45v338q0 61 -41.5 94t-99.5 33t-99.5 -33t-41.5 -94v-193q0 -54 29 -82t74 -28q40 0 81 21v-42q-39 -21 -82 -21q-64 0 -105.5 37.5t-41.5 114.5z" />
    <glyph glyph-name="totaothai" unicode="&#xe15;" horiz-adv-x="485" 
d="M382 0v432q0 15 -9.5 24t-23.5 9q-32 0 -51 -39l-28 -57h-53l-31 64q-15 32 -42 32q-49 0 -49 -83v-237q0 -54 29 -82t74 -28q40 0 81 21v-42q-39 -21 -82 -21q-64 0 -105.5 37.5t-41.5 114.5v237q0 125 94 125q52 0 77 -51l22 -45l20 40q28 56 89 56q32 0 53.5 -19
t21.5 -52v-436h-45z" />
    <glyph glyph-name="thothungthai" unicode="&#xe16;" horiz-adv-x="461" 
d="M58 339l-20 115q117 53 193 53q172 0 172 -167v-340h-45v340q0 125 -127 125q-67 0 -144 -33l16 -93v-234q0 -34 13.5 -48.5t44.5 -14.5h54v-42h-55q-51 0 -76.5 27.5t-25.5 74.5v237z" />
    <glyph glyph-name="thothahanthai" unicode="&#xe17;" horiz-adv-x="460" 
d="M103 500v-140q30 61 76.5 104t104.5 43q51 0 84.5 -30t33.5 -94v-383h-45v383q0 82 -75 82q-50 0 -98 -48t-81 -119v-298h-45v500h45z" />
    <glyph glyph-name="thothongthai" unicode="&#xe18;" horiz-adv-x="412" 
d="M96 228v-176q57 -17 124 -17q54 0 83 25.5t29 70.5v35q0 32 -18 55t-44 35t-66.5 19t-73 8.5t-77.5 1.5q-6 42 -6 88q0 70 46.5 102t121.5 32q80 0 154 -28l-4 -40q-78 26 -150 26q-123 0 -123 -92v-48q285 0 285 -159v-35q0 -65 -44.5 -101.5t-112.5 -36.5
q-94 0 -169 33v202h45z" />
    <glyph glyph-name="nonuthai" unicode="&#xe19;" horiz-adv-x="460" 
d="M364 0l-7 106q-92 -113 -180 -113q-52 0 -85.5 33t-33.5 99v375h45v-373q0 -92 77 -92q76 0 177 116v349h45v-500h-38z" />
    <glyph glyph-name="bobaimaithai" unicode="&#xe1a;" horiz-adv-x="467" 
d="M58 133v367h45v-366q0 -51 35.5 -75t89.5 -24q80 0 136 38v427h45v-452q-75 -55 -181 -55q-72 0 -121 34.5t-49 105.5z" />
    <glyph glyph-name="poplathai" unicode="&#xe1b;" horiz-adv-x="467" 
d="M58 133v367h45v-366q0 -51 35.5 -75t89.5 -24q80 0 136 38v637h45v-662q-75 -55 -181 -55q-72 0 -121 34.5t-49 105.5z" />
    <glyph glyph-name="phophungthai" unicode="&#xe1c;" horiz-adv-x="513" 
d="M371 35l-115 227l-115 -227q-12 -23 -21 -29t-34 -6h-21l-21 407q-5 93 89 93h46v-42h-43q-50 0 -47 -52l18 -347l127 253h44l127 -253l23 441h45l-26 -500h-21q-25 0 -34 6t-21 29z" />
    <glyph glyph-name="fofathai" unicode="&#xe1d;" horiz-adv-x="512" 
d="M371 35l-115 227l-115 -227q-12 -23 -21 -29t-34 -6h-21l-21 407q-5 93 89 93h46v-42h-43q-50 0 -47 -52l18 -347l127 253h44l127 -253l33 651h45l-36 -710h-21q-25 0 -34 6t-21 29z" />
    <glyph glyph-name="phophanthai" unicode="&#xe1e;" horiz-adv-x="514" 
d="M372 35l-115 296l-115 -296q-9 -22 -19 -28.5t-36 -6.5h-21l-26 500h45l23 -437l127 321h44l127 -321l23 437h45l-26 -500h-21q-26 0 -36 6.5t-19 28.5z" />
    <glyph glyph-name="fofanthai" unicode="&#xe1f;" horiz-adv-x="513" 
d="M372 35l-115 296l-115 -296q-9 -22 -19 -28.5t-36 -6.5h-21l-26 500h45l23 -437l127 321h44l127 -321l33 647h45l-36 -710h-21q-26 0 -36 6.5t-19 28.5z" />
    <glyph glyph-name="phosamphaothai" unicode="&#xe20;" horiz-adv-x="473" 
d="M16 42h38q16 0 16 16v281l-20 115q117 53 193 53q172 0 172 -167v-340h-45v340q0 125 -127 125q-67 0 -144 -33l16 -93v-284q0 -55 -58 -55h-41v42z" />
    <glyph glyph-name="momathai" unicode="&#xe21;" horiz-adv-x="460" 
d="M103 93l-7 -93h-38v500h45v-362q95 -103 179 -103q75 0 75 90v375h45v-377q0 -66 -32.5 -98t-84.5 -32q-96 0 -182 100z" />
    <glyph glyph-name="yoyakthai" unicode="&#xe22;" horiz-adv-x="461" 
d="M403 500v-368q0 -74 -48 -106.5t-125 -32.5q-88 0 -180 41v118q0 47 11.5 74.5t51.5 45.5q-27 11 -45 37.5t-18 62.5v23q0 49 25.5 77t74.5 28h75v-42h-70q-32 0 -46 -14.5t-14 -45.5v-28q0 -78 82 -78h63v-42h-63q-46 0 -64 -22t-18 -70v-97q64 -26 135 -26
q128 0 128 102v363h45z" />
    <glyph glyph-name="roruathai" unicode="&#xe23;" horiz-adv-x="386" 
d="M329 486l-6 -39q-67 18 -126 18q-120 0 -120 -77q0 -32 28.5 -55t69 -38t81 -32t69 -48.5t28.5 -77.5q0 -144 -162 -144q-65 0 -145 23l6 43q79 -24 141 -24q115 0 115 102q0 35 -28.5 59t-69 39l-81 31.5t-69 47t-28.5 74.5q0 62 46.5 90.5t116.5 28.5q61 0 134 -21z
" />
    <glyph glyph-name="ruthai" unicode="&#xe24;" horiz-adv-x="461" 
d="M58 339l-20 115q117 53 193 53q172 0 172 -167v-540h-45v540q0 125 -127 125q-67 0 -144 -33l16 -93v-234q0 -34 13.5 -48.5t44.5 -14.5h54v-42h-55q-51 0 -76.5 27.5t-25.5 74.5v237z" />
    <glyph glyph-name="lolingthai" unicode="&#xe25;" horiz-adv-x="438" 
d="M380 353v-353h-45v230q-65 13 -118 13q-140 0 -140 -116q0 -43 26.5 -67.5t67.5 -24.5q39 0 73 17v-42q-34 -17 -77 -17q-56 0 -95.5 35.5t-39.5 97.5q0 84 51.5 121.5t132.5 37.5q52 0 119 -14v80q0 114 -122 114q-69 0 -151 -33l-7 42q76 33 158 33q75 0 121 -36.5
t46 -117.5z" />
    <glyph glyph-name="luthai" unicode="&#xe26;" horiz-adv-x="473" 
d="M16 42h38q16 0 16 16v281l-20 115q117 53 193 53q172 0 172 -167v-540h-45v540q0 125 -127 125q-67 0 -144 -33l16 -93v-284q0 -55 -58 -55h-41v42z" />
    <glyph glyph-name="wowaenthai" unicode="&#xe27;" horiz-adv-x="391" 
d="M102 42h78q116 0 116 117v173q0 71 -35 102t-92 31q-62 0 -129 -29l-7 41q67 30 136 30q75 0 123.5 -44t48.5 -128v-180q0 -75 -41.5 -115t-117.5 -40h-80v42z" />
    <glyph glyph-name="sosalathai" unicode="&#xe28;" horiz-adv-x="455" 
d="M43 0l40 184q-50 52 -50 124v33q0 80 53.5 123t128.5 43q81 0 134 -48q4 10 7 21l12 50h45l-13 -55q-7 -33 -26 -48q23 -38 23 -86v-341h-45v341q0 60 -40.5 92t-96.5 32q-57 0 -97 -31.5t-40 -92.5v-30q0 -55 24 -85q25 32 80 32h62v-42h-55q-31 0 -44 -10.5t-20 -41.5
l-36 -164h-46z" />
    <glyph glyph-name="sorusithai" unicode="&#xe29;" horiz-adv-x="467" 
d="M58 133v367h45v-366q0 -51 35.5 -75t89.5 -24q80 0 136 38v174h-101q-47 0 -47 46v31h45v-35h103v211h45v-452q-75 -55 -181 -55q-72 0 -121 34.5t-49 105.5z" />
    <glyph glyph-name="sosuathai" unicode="&#xe2a;" horiz-adv-x="438" 
d="M380 353v-353h-45v230q-65 13 -118 13q-140 0 -140 -116q0 -43 26.5 -67.5t67.5 -24.5q39 0 73 17v-42q-34 -17 -77 -17q-56 0 -95.5 35.5t-39.5 97.5q0 84 51.5 121.5t132.5 37.5q52 0 119 -14v80q0 114 -122 114q-69 0 -151 -33l-7 42q76 33 158 33q78 0 122 -38
q4 10 6 19l10 42h45l-11 -47q-7 -33 -24 -46q19 -35 19 -84z" />
    <glyph glyph-name="hohipthai" unicode="&#xe2b;" horiz-adv-x="453" 
d="M103 500v-183q71 23 129 23q12 0 36 -2q32 27 43 73l21 89h45l-22 -94q-12 -51 -42 -77q90 -28 90 -119v-210h-45v208q0 90 -128 90q-59 0 -127 -20v-278h-45v500h45z" />
    <glyph glyph-name="lochulathai" unicode="&#xe2c;" horiz-adv-x="529" 
d="M413 63l16 313q2 36 -14.5 59t-51.5 23h-29v42h31q34 0 51 14.5t22 47.5l23 148h45l-24 -153q-9 -63 -66 -76q63 -15 58 -106l-19 -375h-21q-26 0 -36 6.5t-19 28.5l-115 296l-115 -296q-9 -22 -19 -28.5t-36 -6.5h-21l-26 500h45l23 -437l127 321h44z" />
    <glyph glyph-name="oangthai" unicode="&#xe2d;" horiz-adv-x="451" 
d="M40 47v126q0 106 106 106h74v-42h-72q-63 0 -63 -65v-101q58 -36 136 -36q56 0 91.5 23.5t35.5 75.5v212q0 119 -125 119q-70 0 -157 -38l-8 38q88 42 165 42q74 0 122 -38.5t48 -120.5v-215q0 -72 -49 -106t-123 -34q-102 0 -181 54z" />
    <glyph glyph-name="honokhukthai" unicode="&#xe2e;" horiz-adv-x="451" 
d="M40 47v126q0 106 106 106h74v-42h-72q-63 0 -63 -65v-101q58 -36 136 -36q56 0 91.5 23.5t35.5 75.5v212q0 119 -125 119q-70 0 -157 -38l-8 38q88 42 165 42t123 -39q3 6 8 24l9 38h45l-10 -43q-8 -35 -28 -49q23 -38 23 -90v-215q0 -72 -49 -106t-123 -34
q-102 0 -181 54z" />
    <glyph glyph-name="paiyannoithai" unicode="&#xe2f;" horiz-adv-x="428" 
d="M370 500v-500h-45v294q-77 -59 -164 -59q-54 0 -88.5 29t-34.5 88v42q0 53 33 83t84 30q33 0 67 -14v-40q-33 12 -67 12q-72 0 -72 -73v-39q0 -38 24.5 -57t64.5 -19q78 0 153 55v168h45z" />
    <glyph glyph-name="saraathai" unicode="&#xe30;" horiz-adv-x="259" 
d="M75 443v-42q0 -11 11 -11h141v-42h-144q-53 0 -53 52v43h45zM75 165v-42q0 -11 11 -11h141v-42h-144q-53 0 -53 52v43h45z" />
    <glyph glyph-name="maihanakatthai" unicode="&#xe31;" 
d="M-230 700v-57q0 -11 11 -11h219v-42h-219q-56 0 -56 53v57h45z" />
    <glyph glyph-name="saraaathai" unicode="&#xe32;" horiz-adv-x="313" 
d="M255 358v-358h-45v356q0 56 -29.5 82.5t-78.5 26.5q-39 0 -85 -16v40q47 18 89 18q69 0 109 -38.5t40 -110.5z" />
    <glyph glyph-name="saraamthai" unicode="&#xe33;" horiz-adv-x="313" 
d="M255 358v-358h-45v356q0 56 -29.5 82.5t-78.5 26.5q-39 0 -85 -16v40q47 18 89 18q69 0 109 -38.5t40 -110.5zM-183 650q0 28 19.5 47.5t46.5 19.5q28 0 47.5 -19.5t19.5 -47.5q0 -27 -19.5 -46.5t-47.5 -19.5q-27 0 -46.5 19.5t-19.5 46.5zM-147 650q0 -12 9 -21t21 -9
q13 0 21.5 9t8.5 21q0 13 -8.5 21.5t-21.5 8.5q-12 0 -21 -8.5t-9 -21.5z" />
    <glyph glyph-name="saraithai" unicode="&#xe34;" 
d="M-380 585l10 42h312v-42h-322z" />
    <glyph glyph-name="saraiithai" unicode="&#xe35;" 
d="M-380 585l10 42h267l5 78h40v-120h-322z" />
    <glyph glyph-name="sarauethai" unicode="&#xe36;" 
d="M-178 648q0 26 18.5 45t44.5 19t45 -19t19 -45t-19 -44.5t-45 -18.5h-265l10 42h196q-4 9 -4 21zM-144 648q0 -12 8.5 -20.5t20.5 -8.5t20.5 8.5t8.5 20.5t-8.5 20.5t-20.5 8.5t-20.5 -8.5t-8.5 -20.5z" />
    <glyph glyph-name="saraueethai" unicode="&#xe37;" 
d="M-380 585l10 42h178l5 78h40v-78h44l5 78h40v-120h-322z" />
    <glyph glyph-name="sarauthai" unicode="&#xe38;" 
d="M-88 -222h-45v86q0 34 -29 34h-18v42h22q70 0 70 -72v-90z" />
    <glyph glyph-name="sarauuthai" unicode="&#xe39;" 
d="M-256 -148v88h45v-87q0 -33 38 -33q23 0 40 12v108h45v-127q-30 -35 -85 -35q-35 0 -59 18t-24 56z" />
    <glyph glyph-name="phinthuthai" unicode="&#xe3a;" 
d="M-194 -115q0 23 16 39t39 16t39 -16t16 -39t-16 -39t-39 -16t-39 16t-16 39z" />
    <glyph glyph-name="bahtthai" unicode="&#xe3f;" horiz-adv-x="507" 
d="M265 733v-95q83 -2 132 -49t49 -114q0 -46 -26 -89.5t-71 -61.5q115 -51 115 -165q0 -67 -50.5 -114.5t-148.5 -51.5v-93h-45v94q-75 2 -156 19v625h156v95h45zM419 165q0 56 -42 96t-112 41v-267q75 4 114.5 41.5t39.5 88.5zM109 48q48 -9 111 -13v267h-111v-254z
M109 596v-252h111v252h-111zM401 476q0 51 -35 85t-101 35v-252q64 2 100 42t36 90z" />
    <glyph glyph-name="saraethai" unicode="&#xe40;" horiz-adv-x="181" 
d="M103 500v-424q0 -18 7.5 -26t27.5 -8h24v-42h-24q-80 0 -80 73v427h45z" />
    <glyph glyph-name="saraaethai" unicode="&#xe41;" horiz-adv-x="344" 
d="M103 500v-424q0 -18 7.5 -26t27.5 -8h24v-42h-24q-80 0 -80 73v427h45zM266 500v-424q0 -18 7.5 -26t27.5 -8h24v-42h-24q-80 0 -80 73v427h45z" />
    <glyph glyph-name="saraothai" unicode="&#xe42;" horiz-adv-x="221" 
d="M133 450v-374q0 -18 7.5 -26t27.5 -8h24v-42h-24q-80 0 -80 73v377q0 48 -30 124t-30 114v29q0 133 146 133h106v-42h-106q-101 0 -101 -93v-27q0 -33 30 -109t30 -129z" />
    <glyph glyph-name="saraaimaimuanthai" unicode="&#xe43;" horiz-adv-x="241" 
d="M108 73v347q0 41 18 81t39.5 67t39.5 61t18 64v27q0 42 -26.5 65t-63.5 23t-63.5 -23t-26.5 -65v-22q0 -34 20 -59l-37 -27q-28 35 -28 84v26q0 61 40 94.5t95 33.5q56 0 95.5 -33.5t39.5 -95.5v-31q0 -34 -18 -70t-39.5 -63t-39.5 -65.5t-18 -76.5v-339q0 -18 7.5 -26
t27.5 -8h24v-42h-24q-80 0 -80 73z" />
    <glyph glyph-name="saraaimaimalaithai" unicode="&#xe44;" horiz-adv-x="231" 
d="M98 73v409q0 55 20 103t39.5 86t19.5 69v26q0 22 -9 32t-32 10h-158v42h158q86 0 86 -82v-28q0 -41 -39.5 -119.5t-39.5 -139.5v-405q0 -18 7.5 -26t27.5 -8h24v-42h-24q-80 0 -80 73z" />
    <glyph glyph-name="lakkhangyaothai" unicode="&#xe45;" horiz-adv-x="313" 
d="M255 358v-558h-45v556q0 56 -29.5 82.5t-78.5 26.5q-39 0 -85 -16v40q47 18 89 18q69 0 109 -38.5t40 -110.5z" />
    <glyph glyph-name="maiyamokthai" unicode="&#xe46;" horiz-adv-x="449" 
d="M391 500v-700h-45v571q-22 0 -45 18l-71 53q-31 23 -65 23t-56.5 -22.5t-22.5 -64.5v-64q0 -45 23 -66t61 -21q32 0 69 16v-40q-35 -18 -71 -18q-55 0 -91 35t-36 94v58q0 61 36 98t91 37q45 0 75 -23l82 -62l21 78h45z" />
    <glyph glyph-name="maitaikhuthai" unicode="&#xe47;" 
d="M-279 675v-16q39 -33 79 -33q20 0 32.5 8.5t12.5 23.5v11h45v-15q0 -34 -23 -52t-57 -18q-48 0 -89 38l-7 -32h-38v86q0 29 18 46.5t48 17.5h188v-42h-186q-23 0 -23 -23z" />
    <glyph glyph-name="maiekthai" unicode="&#xe48;" 
d="M-58 750h-41l5 108h36v-108z" />
    <glyph glyph-name="maithothai" unicode="&#xe49;" 
d="M-163 825v-25q0 -12 12 -12h139l-7 -38h-135q-26 0 -37.5 10.5t-11.5 37.5v29h-48l7 38h39q42 0 42 -40z" />
    <glyph glyph-name="maitrithai" unicode="&#xe4a;" 
d="M-170 752v52q-29 31 -58 31q-25 0 -25 -24v-7q0 -21 23 -21q9 0 23 4v-33q-14 -9 -31 -9q-23 0 -39.5 14t-16.5 44v10q0 28 18 44t43 16q34 0 63 -37l7 32h34v-85h4q23 0 29 23l17 62h41l-17 -64q-15 -59 -70 -59q-15 0 -45 7z" />
    <glyph glyph-name="maichattawathai" unicode="&#xe4b;" 
d="M-58 750h-41v33h-34v41h34v34h41v-34h33v-41h-33v-33z" />
    <glyph glyph-name="thanthakhatthai" unicode="&#xe4c;" 
d="M-190 765v-45h-34q-6 27 -6 47q0 32 14.5 46.5t47.5 14.5h158l-7 -38h-148q-14 0 -19.5 -5.5t-5.5 -19.5z" />
    <glyph glyph-name="nikhahitthai" unicode="&#xe4d;" 
d="M-183 650q0 28 19.5 47.5t46.5 19.5q28 0 47.5 -19.5t19.5 -47.5q0 -27 -19.5 -46.5t-47.5 -19.5q-27 0 -46.5 19.5t-19.5 46.5zM-147 650q0 -12 9 -21t21 -9q13 0 21.5 9t8.5 21q0 13 -8.5 21.5t-21.5 8.5q-12 0 -21 -8.5t-9 -21.5z" />
    <glyph glyph-name="yamakkanthai" unicode="&#xe4e;" 
 />
    <glyph glyph-name="fongmanthai" unicode="&#xe4f;" horiz-adv-x="514" 
d="M481 226q0 -94 -66 -160t-160 -66t-160 66t-66 160t66 160t160 66t160 -66t66 -160zM430 226q0 72 -51.5 123.5t-123.5 51.5t-123.5 -51.5t-51.5 -123.5t51.5 -123.5t123.5 -51.5t123.5 51.5t51.5 123.5zM374 226q0 -49 -35 -84t-84 -35t-84 35t-35 84t35 84t84 35
t84 -35t35 -84z" />
    <glyph glyph-name="zerothai" unicode="&#xe50;" horiz-adv-x="454" 
d="M47 148v66q0 78 54.5 122t127.5 44q72 0 124.5 -43.5t52.5 -121.5v-160q-93 -62 -177 -62q-71 0 -122 38.5t-60 116.5zM92 215v-65q0 -57 39.5 -86t97.5 -29q69 0 132 40v140q0 59 -38.5 91t-93.5 32q-58 0 -97.5 -30t-39.5 -93z" />
    <glyph glyph-name="onethai" unicode="&#xe51;" horiz-adv-x="454" 
d="M101 42h117q66 0 96.5 28t30.5 93v51q0 62 -35.5 93t-90.5 31q-46 0 -78 -23.5t-32 -67.5v-21q0 -37 23 -54t59 -17t67 14v-40q-29 -16 -67 -16q-55 0 -91 28.5t-36 81.5v25q0 63 45 97.5t110 34.5q73 0 122 -41.5t49 -124.5v-53q0 -79 -45.5 -120t-126.5 -41h-117v42z
" />
    <glyph glyph-name="twothai" unicode="&#xe52;" horiz-adv-x="454" 
d="M305 196v-40q-25 -9 -51 -9q-48 0 -79.5 26.5t-31.5 72.5v33q0 47 24 74t59 27t61 -21l59 -46l26 60h45v-335q-74 -45 -187 -45q-82 0 -136 35t-54 110v362h45v-358q0 -56 41 -81.5t104 -25.5q80 0 142 30v196q-27 0 -49 17l-62 48q-17 12 -31 12q-20 0 -31 -16.5
t-11 -44.5v-30q0 -59 66 -59q28 0 51 8z" />
    <glyph glyph-name="threethai" unicode="&#xe53;" horiz-adv-x="454" 
d="M52 125v133q0 57 30 89.5t86 32.5q46 0 84 -31l79 -63l23 92h45v-378h-45v233q-23 0 -46 18l-79 63q-30 24 -61 24q-71 0 -71 -81v-131q0 -47 26.5 -69t67.5 -22q47 0 90 24v-42q-42 -24 -90 -24q-61 0 -100 33.5t-39 98.5z" />
    <glyph glyph-name="fourthai" unicode="&#xe54;" horiz-adv-x="454" 
d="M367 0q-59 0 -89 33q-41 -40 -100 -40q-55 0 -91 35.5t-36 97.5v107q0 140 144 140h78q42 0 59 15t25 51l13 61h45l-13 -61q-13 -61 -43.5 -84.5t-85.5 -23.5h-78q-99 0 -99 -102v-103q0 -44 23 -67.5t59 -23.5q42 0 82 30q-6 18 -6 39v18q0 46 28.5 75.5t76.5 29.5h29
v-42h-29q-28 0 -44.5 -18t-16.5 -47v-14q0 -34 17 -49t54 -15h24v-42h-26z" />
    <glyph glyph-name="fivethai" unicode="&#xe55;" horiz-adv-x="454" 
d="M159 397q0 28 19.5 47.5t46.5 19.5q28 0 47.5 -19.5t19.5 -47.5q0 -11 -5 -24q34 3 48.5 18t21.5 48l13 61h45l-13 -61q-13 -61 -43.5 -84.5t-85.5 -23.5h-78q-99 0 -99 -102v-103q0 -44 23 -67.5t59 -23.5q42 0 82 30q-6 18 -6 39v18q0 46 28.5 75.5t76.5 29.5h29v-42
h-29q-28 0 -44.5 -18t-16.5 -47v-14q0 -34 17 -49t54 -15h24v-42h-26q-59 0 -89 33q-41 -40 -100 -40q-55 0 -91 35.5t-36 97.5v107q0 124 113 138q-5 13 -5 26zM195 397q0 -12 9 -21t21 -9q13 0 21.5 9t8.5 21q0 13 -8.5 21.5t-21.5 8.5q-12 0 -21 -8.5t-9 -21.5z" />
    <glyph glyph-name="sixthai" unicode="&#xe56;" horiz-adv-x="454" 
d="M114 500l27 -81q15 -46 67 -46h37q70 0 107 -38t37 -109v-187q-67 -46 -154 -46q-68 0 -114.5 32t-46.5 91v15q0 109 111 109q28 0 62 -8v-40q-36 6 -57 6q-71 0 -71 -67v-13q0 -41 33.5 -62t82.5 -21q66 0 109 27v164q0 105 -99 105h-37q-49 0 -73 20.5t-39 67.5l-27 81
h45z" />
    <glyph glyph-name="seventhai" unicode="&#xe57;" horiz-adv-x="509" 
d="M222 48v-41q-30 -14 -58 -14q-55 0 -95 35t-40 97v133q0 57 27 89.5t78 32.5q42 0 80 -31l48 -39l22 63h45v-334h7q39 0 56.5 21.5t24.5 70.5l51 369h45l-52 -375q-9 -63 -38.5 -94t-93.5 -31h-45v258q-23 0 -44 16l-49 40q-30 24 -57 24q-60 0 -60 -81v-131
q0 -44 25.5 -67.5t64.5 -23.5q31 0 58 13z" />
    <glyph glyph-name="eightthai" unicode="&#xe58;" horiz-adv-x="454" 
d="M193 373h76q42 0 59 15t25 51l13 61h45l-13 -61q-13 -61 -43.5 -84.5t-85.5 -23.5h-73q-51 0 -72.5 -23t-21.5 -75v-112q88 -86 173 -86q33 0 51.5 18t18.5 48v17q0 62 -61 62h-25v42h25q51 0 78.5 -28t27.5 -74v-19q0 -51 -30.5 -79.5t-84.5 -28.5q-90 0 -173 81l-5 -74
h-40v234q0 139 136 139z" />
    <glyph glyph-name="ninethai" unicode="&#xe59;" horiz-adv-x="454" 
d="M156 380q49 0 79 -30q26 23 63 23h24q20 0 29.5 7.5t13.5 26.5l20 93h45l-20 -93q-8 -40 -28.5 -58t-59.5 -18h-24q-25 0 -40 -10q12 -21 22 -55l80 -266h-46l-76 252q-26 86 -81 86q-75 0 -75 -100v-104q0 -52 17 -75.5t57 -23.5q24 0 51 10v-40q-27 -12 -51 -12
q-61 0 -90 39t-29 101v107q0 69 33 104.5t86 35.5z" />
    <glyph glyph-name="angkhankhuthai" unicode="&#xe5a;" horiz-adv-x="543" 
d="M370 500v-500h-45v294q-77 -59 -164 -59q-54 0 -88.5 29t-34.5 88v42q0 53 33 83t84 30q33 0 67 -14v-40q-33 12 -67 12q-72 0 -72 -73v-39q0 -38 24.5 -57t64.5 -19q78 0 153 55v168h45zM440 0v500h45v-500h-45z" />
    <glyph glyph-name="khomutthai" unicode="&#xe5b;" horiz-adv-x="524" 
d="M464 0h-404v518l17 82h387v-600zM110 555v-510h304v510h-304z" />
    <glyph glyph-name="endash" unicode="&#x2013;" horiz-adv-x="282" 
d="M25 270h235v-42h-235v42z" />
    <glyph glyph-name="emdash" unicode="&#x2014;" horiz-adv-x="461" 
d="M25 270h409v-42h-409v42z" />
    <glyph glyph-name="quoteleft" unicode="&#x2018;" horiz-adv-x="158" 
d="M15 480l86 230h45l-61 -230h-70z" />
    <glyph glyph-name="quoteright" unicode="&#x2019;" horiz-adv-x="158" 
d="M146 710l-86 -230h-45l61 230h70z" />
    <glyph glyph-name="bullet" unicode="&#x2022;" horiz-adv-x="196" 
d="M98 224q-31 0 -51.5 20.5t-20.5 51.5t20.5 51.5t51.5 20.5t51.5 -20.5t20.5 -51.5t-20.5 -51.5t-51.5 -20.5z" />
    <glyph glyph-name="ellipsis" unicode="&#x2026;" horiz-adv-x="524" 
d="M464 0h-404v600h404v-600zM110 555v-510h304v510h-304z" />
    <glyph glyph-name="thothannobasethai" unicode="&#xf700;" horiz-adv-x="408" 
d="M354 481l-8 -38q-64 22 -132 22q-136 0 -136 -105v-19q272 0 272 -170v-144q-52 -34 -118 -34q-52 0 -89.5 25t-46.5 75l-12 71q-2 14 -8.5 19t-20.5 5h-18v41h18q62 0 72 -55l11 -66q12 -73 94 -73q39 0 73 16v116q0 43 -22 71t-63.5 40.5t-81 17t-93.5 4.5q-9 36 -9 63
q0 76 50.5 110t127.5 34q69 0 140 -26z" />
    <glyph glyph-name="saraileftthai" unicode="&#xf701;" 
d="M-442 585l10 42h285v-42h-295z" />
    <glyph glyph-name="saraiileftthai" unicode="&#xf702;" 
d="M-442 585l10 42h240l5 78h40v-120h-295z" />
    <glyph glyph-name="saraueleftthai" unicode="&#xf703;" 
d="M-269 648q0 26 18.5 45t44.5 19t45 -19t19 -45t-19 -44.5t-45 -18.5h-236l10 42h167q-4 9 -4 21zM-235 648q0 -12 8.5 -20.5t20.5 -8.5t20.5 8.5t8.5 20.5t-8.5 20.5t-20.5 8.5t-20.5 -8.5t-8.5 -20.5z" />
    <glyph glyph-name="saraueeleftthai" unicode="&#xf704;" 
d="M-442 585l10 42h151l5 78h40v-78h44l5 78h40v-120h-295z" />
    <glyph glyph-name="maieklowleftthai" unicode="&#xf705;" 
d="M-157 585h-45l5 120h40v-120z" />
    <glyph glyph-name="maitholowleftthai" unicode="&#xf706;" 
d="M-210 668v-28q0 -13 13 -13h187l-7 -42h-183q-29 0 -42 11.5t-13 41.5v32h-53l7 42h44q47 0 47 -44z" />
    <glyph glyph-name="maitrilowleftthai" unicode="&#xf707;" 
d="M-278 587v57q-33 35 -65 35q-28 0 -28 -27v-7q0 -24 26 -24q13 0 26 5v-37q-15 -10 -35 -10q-26 0 -44 15.5t-18 48.5v11q0 32 20 49.5t48 17.5q38 0 70 -41l7 36h38v-95h4q27 0 33 26l19 69h45l-19 -71q-18 -66 -77 -66q-21 0 -50 8z" />
    <glyph glyph-name="maichattawalowleftthai" unicode="&#xf708;" 
d="M-184 585h-45v37h-38v45h38v38h45v-38h37v-45h-37v-37z" />
    <glyph glyph-name="thanthakhatlowleftthai" unicode="&#xf709;" 
d="M-220 635v-50h-37q-7 28 -7 52q0 36 16 52t53 16h195l-7 -42h-185q-16 0 -22 -6.5t-6 -21.5z" />
    <glyph glyph-name="maieklowrightthai" unicode="&#xf70a;" 
d="M-58 585h-45l5 120h40v-120z" />
    <glyph glyph-name="maitholowrightthai" unicode="&#xf70b;" 
d="M-177 668v-28q0 -13 13 -13h154l-7 -42h-150q-29 0 -42 11.5t-13 41.5v32h-53l7 42h44q47 0 47 -44z" />
    <glyph glyph-name="maitrilowrightthai" unicode="&#xf70c;" 
d="M-214 587v57q-33 35 -65 35q-28 0 -28 -27v-7q0 -24 26 -24q13 0 26 5v-37q-15 -10 -35 -10q-26 0 -44 15.5t-18 48.5v11q0 32 20 49.5t48 17.5q38 0 70 -41l7 36h38v-95h4q27 0 33 26l19 69h45l-19 -71q-18 -66 -77 -66q-21 0 -50 8z" />
    <glyph glyph-name="maichattawalowrightthai" unicode="&#xf70d;" 
d="M-77 585h-45v37h-38v45h38v38h45v-38h37v-45h-37v-37z" />
    <glyph glyph-name="thanthakhatlowrightthai" unicode="&#xf70e;" 
d="M-200 635v-50h-37q-7 28 -7 52q0 36 16 52t53 16h175l-7 -42h-165q-16 0 -22 -6.5t-6 -21.5z" />
    <glyph glyph-name="yoyingnobasethai" unicode="&#xf70f;" horiz-adv-x="719" 
d="M661 500v-454q-86 -53 -169 -53q-67 0 -111 34t-44 106v215q0 62 -31.5 89.5t-82.5 27.5q-56 0 -136 -33l16 -93v-234q0 -34 13.5 -48.5t44.5 -14.5h54v-42h-55q-51 0 -76.5 27.5t-25.5 74.5v237l-20 115q119 53 187 53q70 0 113.5 -38t43.5 -121v-214q0 -52 31 -75.5
t79 -23.5q65 0 124 35v430h45z" />
    <glyph glyph-name="maihanakatleftthai" unicode="&#xf710;" 
d="M-230 695v-57q0 -11 11 -11h219v-42h-219q-56 0 -56 53v57h45z" />
    <glyph glyph-name="nikhahitleftthai" unicode="&#xf711;" 
d="M-273 650q0 28 19.5 47.5t46.5 19.5q28 0 47.5 -19.5t19.5 -47.5q0 -27 -19.5 -46.5t-47.5 -19.5q-27 0 -46.5 19.5t-19.5 46.5zM-237 650q0 -12 9 -21t21 -9q13 0 21.5 9t8.5 21q0 13 -8.5 21.5t-21.5 8.5q-12 0 -21 -8.5t-9 -21.5z" />
    <glyph glyph-name="maitaikhuleftthai" unicode="&#xf712;" 
d="M-309 670v-16q39 -33 79 -33q20 0 32.5 8.5t12.5 23.5v11h45v-15q0 -34 -23 -52t-57 -18q-48 0 -89 38l-7 -32h-38v86q0 29 18 46.5t48 17.5h263v-42h-261q-23 0 -23 -23z" />
    <glyph glyph-name="maiekupperleftthai" unicode="&#xf713;" 
d="M-147 750h-41l5 108h36v-108z" />
    <glyph glyph-name="maithoupperleftthai" unicode="&#xf714;" 
d="M-240 825v-25q0 -12 12 -12h139l-7 -38h-135q-26 0 -37.5 10.5t-11.5 37.5v29h-48l7 38h39q42 0 42 -40z" />
    <glyph glyph-name="maitriupperleftthai" unicode="&#xf715;" 
d="M-242 752v52q-29 31 -58 31q-25 0 -25 -24v-7q0 -21 23 -21q9 0 23 4v-33q-14 -9 -31 -9q-23 0 -39.5 14t-16.5 44v10q0 28 18 44t43 16q34 0 63 -37l7 32h34v-85h4q23 0 29 23l17 62h41l-17 -64q-15 -59 -70 -59q-15 0 -45 7z" />
    <glyph glyph-name="maichattawaupperleftthai" unicode="&#xf716;" 
d="M-147 750h-41v33h-34v41h34v34h41v-34h33v-41h-33v-33z" />
    <glyph glyph-name="thanthakhatupperleftthai" unicode="&#xf717;" 
d="M-258 765v-45h-34q-6 27 -6 47q0 32 14.5 46.5t47.5 14.5h158l-7 -38h-148q-14 0 -19.5 -5.5t-5.5 -19.5z" />
    <glyph glyph-name="saraulowthai" unicode="&#xf718;" 
d="M-88 -392h-45v86q0 34 -29 34h-18v42h22q70 0 70 -72v-90z" />
    <glyph glyph-name="sarauulowthai" unicode="&#xf719;" 
d="M-256 -318v88h45v-87q0 -33 38 -33q23 0 40 12v108h45v-127q-30 -35 -85 -35q-35 0 -59 18t-24 56z" />
    <glyph glyph-name="phinthulowthai" unicode="&#xf71a;" 
d="M-194 -285q0 23 16 39t39 16t39 -16t16 -39t-16 -39t-39 -16t-39 16t-16 39z" />
    <glyph glyph-name="lochula.short" unicode="&#xf71d;" horiz-adv-x="528" 
d="M413 63l13 253q2 36 -14.5 59t-51.5 23h-17v42h19q34 0 51 14.5t22 47.5l4 28h45l-5 -33q-9 -63 -66 -76q63 -15 58 -106l-16 -315h-21q-26 0 -36 6.5t-19 28.5l-115 296l-115 -296q-9 -22 -19 -28.5t-36 -6.5h-21l-26 500h45l23 -437l127 321h44z" />
    <glyph glyph-name="saraamleft" horiz-adv-x="322" 
d="M255 358v-358h-45v356q0 56 -29.5 82.5t-78.5 26.5q-39 0 -85 -16v40q47 18 89 18q69 0 109 -38.5t40 -110.5zM-273 650q0 28 19.5 47.5t46.5 19.5q28 0 47.5 -19.5t19.5 -47.5q0 -27 -19.5 -46.5t-47.5 -19.5q-27 0 -46.5 19.5t-19.5 46.5zM-237 650q0 -12 9 -21t21 -9
q13 0 21.5 9t8.5 21q0 13 -8.5 21.5t-21.5 8.5q-12 0 -21 -8.5t-9 -21.5z" />
    <glyph glyph-name="yamakkanleftthai" horiz-adv-x="524" 
d="M464 0h-404v518l17 82h387v-600zM110 555v-510h304v510h-304z" />
    <glyph glyph-name="Typomancer" horiz-adv-x="607" 
d="M99 380l190 47l-148 31q-43 9 -71 -8l-13 -9zM527 348l-76 -30q23 -9 37 -29t14 -44q0 -31 -23 -54t-54 -23q-20 0 -37 9t-23 21v-170q78 20 129 84t51 146q0 49 -18 90zM238 103v297l-142 -36q-24 -48 -24 -106q0 -56 25 -105.5t68 -82.5zM348 -55v61q-20 -3 -40 -3
q-106 0 -180.5 75t-74.5 180q0 64 31 115l-47 71l80 55q16 12 50 9l70 -6v30q0 42 38 59l90 40v-17l-49 -23v-78l-39 -16l71 -7v78l17 8v-88l215 -22v-6l-90 -40q-59 -26 -113 -12l-12 3v-84l-17 -15v102l-32 7v-262q0 -38 -39 -57l-96 -43q59 -38 127 -38q14 0 40 4v205
l17 15q0 -25 17.5 -42.5t42.5 -17.5t42.5 17.5t17.5 42.5t-17.5 42.5t-42.5 17.5v17l111 47q27 -41 27 -111q0 -90 -56 -159.5t-142 -88.5v-49l-16 -17zM123 258q0 -95 79 -152l-18 -9q-37 28 -58.5 70.5t-21.5 90.5q0 52 24 98l29 10q-34 -48 -34 -108zM148 471l232 -46
q55 -11 103 10l49 22l-368 38q-21 3 -39 -7l-20 -14q16 3 43 -3zM253 404v-295l21 10q26 10 26 40v257zM300 523v60l-21 -9q-26 -12 -26 -40v-29zM425 212q-14 0 -23.5 9.5t-9.5 23.5t9.5 23.5t23.5 9.5q13 0 22.5 -9.5t9.5 -23.5t-9.5 -23.5t-22.5 -9.5z" />
    </font>
</defs>
</svg>
